# xmcd
#
# Track frame offsets:
#	200
#	15745
#	28155
#	40027
#	56310
#	66562
#	78917
#	90870
#	105965
#	119295
#	135367
#	150447
#	161197
#	180417
#	195252
#	212425
#	227692
#	243460
#	255445
#
# Disc length: 3674 seconds
#
# Revision: 1
# Processed by: cddbd v1.5.2PL0 Copyright (c) Steve Scherf et al.
# Submitted via: audiograbber 1.83.01
#
DISCID=dd0e5813
DTITLE=Joep Bruinje - 1100 - Joep Bruinje - Medicine Vitamins (0000)
DYEAR=1900
DGENRE=
TTITLE0=Trois Sur Quatre
TTITLE1=Ghetto Booy
TTITLE2=Back To The Border
TTITLE3=Caroline
TTITLE4=Twice A Year
TTITLE5=Just Another Day
TTITLE6=Billy
TTITLE7=Painting and Drawning
TTITLE8=The Last One
TTITLE9=Oh, Oh, Oh
TTITLE10=She Is In Love
TTITLE11=Little THings
TTITLE12=Remember This
TTITLE13=Muscle Of Love
TTITLE14=People
TTITLE15=Sentimental Mood
TTITLE16=I'm Living Again
TTITLE17=Make Up
TTITLE18=Let's Close Our Eyes
EXTD=
EXTT0=
EXTT1=
EXTT2=
EXTT3=
EXTT4=
EXTT5=
EXTT6=
EXTT7=
EXTT8=
EXTT9=
EXTT10=
EXTT11=
EXTT12=
EXTT13=
EXTT14=
EXTT15=
EXTT16=
EXTT17=
EXTT18=
PLAYORDER=
